<svg xmlns="http://www.w3.org/2000/svg" width="24" height="24" fill="none" viewBox="0 0 24 24"><path stroke="#636363" stroke-linecap="round" stroke-linejoin="round" stroke-width="1.5" d="M8 19C4 19 2 18 2 13V8C2 4 4 2 8 2H16C20 2 22 4 22 8V13C22 17 20 19 16 19H15.5C15.19 19 14.89 19.15 14.7 19.4L13.2 21.4C12.54 22.28 11.46 22.28 10.8 21.4L9.3 19.4C9.14 19.18 8.77 19 8.5 19H8Z"/><path stroke="#636363" stroke-linecap="round" stroke-linejoin="round" stroke-width="2" d="M15.9965 11H16.0054"/><path stroke="#636363" stroke-linecap="round" stroke-linejoin="round" stroke-width="2" d="M11.9955 11H12.0045"/><path stroke="#636363" stroke-linecap="round" stroke-linejoin="round" stroke-width="2" d="M7.99451 11H8.00349"/></svg>