<svg xmlns="http://www.w3.org/2000/svg" width="24" height="24" fill="none" viewBox="0 0 24 24"><path stroke="#000" stroke-linecap="round" stroke-linejoin="round" stroke-width="1.5" d="M10 16.95H6.21C2.84 16.95 2 16.11 2 12.74V6.74003C2 3.37003 2.84 2.53003 6.21 2.53003H16.74C20.11 2.53003 20.95 3.37003 20.95 6.74003"/><path stroke="#636363" stroke-linecap="round" stroke-linejoin="round" stroke-width="1.5" d="M10 21.4699V16.95"/><path stroke="#636363" stroke-linecap="round" stroke-linejoin="round" stroke-width="1.5" d="M2 12.95H10"/><path stroke="#636363" stroke-linecap="round" stroke-linejoin="round" stroke-width="1.5" d="M6.74023 21.47H10.0002"/><path stroke="#636363" stroke-linecap="round" stroke-linejoin="round" stroke-width="1.5" d="M22.0003 18.51C22.0003 20.88 21.4103 21.47 19.0403 21.47H15.4903C13.1203 21.47 12.5303 20.88 12.5303 18.51V12.8C12.5303 10.43 13.1203 9.83997 15.4903 9.83997H19.0403C21.4103 9.83997 22.0003 10.43 22.0003 12.8V18.51Z"/><path stroke="#636363" stroke-linecap="round" stroke-linejoin="round" stroke-width="2" d="M17.2445 18.25H17.2535"/></svg>